<svg width="55" height="92" viewBox="0 0 55 92" fill="none" xmlns="http://www.w3.org/2000/svg">
<path d="M2.66602 20.7559C7.77018 20.9382 11.735 21.0293 14.5605 21.0293C17.3861 21.0293 21.3509 20.9382 26.4551 20.7559C26.5462 21.1204 26.5918 21.3711 26.5918 21.5078C26.5918 21.6673 26.5462 21.9521 26.4551 22.3623C25.4069 22.4535 24.5524 22.556 23.8916 22.6699C23.2536 22.7611 22.4561 22.9206 21.499 23.1484C20.5648 23.3763 19.847 23.7067 19.3457 24.1396C18.8444 24.5498 18.5824 25.0511 18.5596 25.6436C18.2633 33.391 18.1152 40.6029 18.1152 47.2793C18.1152 50.7201 18.2406 57.932 18.4912 68.915H29.0527C32.4023 68.6872 35.3988 68.1973 38.042 67.4453C40.6852 66.6934 42.8841 65.7363 44.6387 64.5742C46.416 63.3893 47.8743 62.1702 49.0137 60.917C50.1758 59.641 51.1784 58.2168 52.0215 56.6445C52.6139 56.8724 53.0013 57.18 53.1836 57.5674C52.2493 59.2992 51.5202 60.7005 50.9961 61.7715C50.4948 62.8424 49.9365 64.2552 49.3213 66.0098C48.7288 67.7415 48.3415 69.4049 48.1592 71H18.4912C12.3161 71 7.01823 71.0684 2.59766 71.2051C2.50651 70.9316 2.46094 70.7038 2.46094 70.5215C2.46094 70.362 2.50651 70.0544 2.59766 69.5986C3.64583 69.5075 4.48893 69.4163 5.12695 69.3252C5.78776 69.2113 6.58529 69.0404 7.51953 68.8125C8.47656 68.5846 9.20573 68.2656 9.70703 67.8555C10.2083 67.4225 10.4704 66.9098 10.4932 66.3174C10.7666 59.1852 10.9033 51.9961 10.9033 44.75C10.9033 37.3672 10.7894 30.9984 10.5615 25.6436C10.5387 25.0511 10.2767 24.5498 9.77539 24.1396C9.27409 23.7067 8.54492 23.3763 7.58789 23.1484C6.65365 22.9206 5.85612 22.7611 5.19531 22.6699C4.55729 22.556 3.71419 22.4535 2.66602 22.3623C2.57487 21.9521 2.5293 21.6673 2.5293 21.5078C2.5293 21.2799 2.57487 21.0293 2.66602 20.7559Z" fill="white"/>
<path d="M40.5 21L41.1355 26.1779C41.8909 32.3324 46.5321 37.2471 52.5408 38.2552L54 38.5L52.5408 38.7448C46.5321 39.7529 41.8909 44.6675 41.1355 50.8221L40.5 56L39.8645 50.8221C39.1091 44.6676 34.4679 39.7529 28.4592 38.7448L27 38.5L28.4592 38.2552C34.4679 37.2471 39.1091 32.3325 39.8645 26.1779L40.5 21Z" fill="white"/>
</svg>
